<svg width="104" height="100" viewBox="0 0 104 100" fill="none" xmlns="http://www.w3.org/2000/svg">
<path d="M86.3654 50.1454C86.7929 49.6046 87.2055 49.0625 87.5984 48.5193C93.2549 40.6975 94.637 33.5033 91.4898 28.2619C88.3427 23.0206 81.1727 20.5744 71.2989 21.3737C70.6133 21.4293 69.9188 21.5017 69.218 21.5874C68.9447 20.961 68.6627 20.3463 68.3699 19.7477C64.1533 11.1265 58.3647 6.37866 52.0705 6.37866C45.7762 6.37866 39.9876 11.1265 35.7712 19.7477C35.4783 20.3464 35.1965 20.961 34.9231 21.5875C34.2222 21.5018 33.5277 21.4294 32.842 21.3738C22.9692 20.5743 15.7985 23.0208 12.6513 28.262C9.50415 33.5034 10.8861 40.6976 16.5427 48.5194C16.9354 49.0625 17.348 49.6047 17.7756 50.1455C17.348 50.6863 16.9355 51.2284 16.5427 51.7716C10.8862 59.5934 9.50425 66.7876 12.6513 72.0289C15.4076 76.6191 21.2494 79.0655 29.2904 79.0655C30.4308 79.0655 31.6159 79.0162 32.842 78.9171C33.5277 78.8615 34.2222 78.7891 34.9231 78.7034C35.1965 79.3298 35.4784 79.9445 35.7713 80.5432C39.9877 89.1644 45.7763 93.9123 52.0706 93.9123C58.3648 93.9123 64.1534 89.1644 68.37 80.5432C68.6629 79.9445 68.9448 79.3299 69.2181 78.7034C69.9189 78.7891 70.6134 78.8615 71.299 78.9171C72.526 79.0165 73.7098 79.0655 74.8509 79.0655C82.8909 79.0655 88.7338 76.6189 91.4899 72.0289C94.637 66.7876 93.255 59.5934 87.5985 51.7716C87.2056 51.2284 86.793 50.6862 86.3654 50.1454ZM71.64 25.2678C79.735 24.6119 85.6883 26.4158 87.9702 30.2159C90.2521 34.0161 88.9003 39.8743 84.2618 46.2885C84.0815 46.5379 83.8959 46.7872 83.7073 47.0362C80.8667 43.9504 77.4954 40.9476 73.7167 38.1287C73.0672 33.5727 72.0484 29.264 70.6894 25.3556C71.008 25.3231 71.3252 25.2932 71.64 25.2678ZM61.2797 65.4826C58.2312 67.1749 55.1426 68.6683 52.0705 69.9446C48.9983 68.6683 45.9097 67.1749 42.8613 65.4826C39.8128 63.7902 36.9236 61.9651 34.238 60.0451C33.8515 56.8487 33.6523 53.5302 33.6523 50.1455C33.6523 46.7608 33.8515 43.442 34.2381 40.2457C36.9237 38.3257 39.8129 36.5005 42.8613 34.8082C45.9097 33.1158 48.9984 31.6224 52.0705 30.3462C55.1426 31.6224 58.2311 33.1158 61.2797 34.8082C64.3282 36.5005 67.2175 38.3258 69.9031 40.2458C70.2896 43.4421 70.489 46.7608 70.489 50.1455C70.489 53.5302 70.2897 56.8487 69.9032 60.045C67.2175 61.965 64.3282 63.7902 61.2797 65.4826ZM69.0542 65.4114C68.4302 68.5811 67.6102 71.5829 66.6048 74.3512C63.6088 73.8042 60.4951 72.9862 57.3283 71.9209C59.332 70.9852 61.3312 69.966 63.3116 68.8667C65.2921 67.7673 67.2096 66.6121 69.0542 65.4114ZM46.8127 71.9209C43.6458 72.9862 40.5321 73.8042 37.5362 74.3512C36.5309 71.5829 35.7109 68.5811 35.0869 65.4115C36.9316 66.6122 38.849 67.7673 40.8292 68.8667C42.8096 69.9661 44.8088 70.9852 46.8127 71.9209ZM29.829 56.6549C27.2862 54.5505 24.9926 52.3667 23.002 50.1454C24.9926 47.9241 27.2863 45.7403 29.829 43.6358C29.6699 45.7723 29.5882 47.9466 29.5882 50.1454C29.5882 52.3442 29.6699 54.5184 29.829 56.6549ZM35.0869 34.8791C35.7109 31.7095 36.5309 28.7077 37.5362 25.9395C40.5321 26.4864 43.6458 27.3045 46.8126 28.3698C44.8088 29.3055 42.8096 30.3245 40.8292 31.424C38.8489 32.5233 36.9316 33.6785 35.0869 34.8791ZM57.3284 28.3698C60.4951 27.3046 63.6088 26.4865 66.6048 25.9395C67.6101 28.7077 68.4302 31.7096 69.0542 34.8792C67.2096 33.6786 65.2921 32.5233 63.3117 31.424C61.3313 30.3245 59.3321 29.3054 57.3284 28.3698ZM74.3121 43.6359C76.8548 45.7403 79.1486 47.9241 81.1391 50.1454C79.1486 52.3666 76.855 54.5504 74.3121 56.6548C74.4712 54.5184 74.5529 52.3441 74.5529 50.1454C74.5529 47.9466 74.4712 45.7724 74.3121 43.6359ZM39.4486 21.4108C42.9065 14.3411 47.5069 10.2864 52.0705 10.2864C56.634 10.2864 61.2345 14.3411 64.6922 21.4108C64.8267 21.6857 64.9582 21.9648 65.0884 22.2462C60.8888 23.0687 56.4986 24.3748 52.0705 26.1119C47.6423 24.3748 43.2521 23.0687 39.0526 22.2462C39.1827 21.9647 39.3143 21.6856 39.4486 21.4108ZM19.8793 46.2884C15.2407 39.8743 13.8891 34.016 16.1709 30.2158C18.1448 26.9284 22.864 25.1354 29.3429 25.1354C30.3538 25.1354 31.4085 25.1791 32.5012 25.2677C32.816 25.2931 33.1332 25.3231 33.4517 25.3555C32.0928 29.2638 31.074 33.5725 30.4244 38.1284C26.6458 40.9473 23.2744 43.9501 20.4337 47.036C20.2453 46.787 20.0596 46.5378 19.8793 46.2884ZM32.5011 75.0229C24.4057 75.6784 18.4527 73.875 16.1708 70.0749C13.889 66.2747 15.2407 60.4164 19.8792 54.0024C20.0595 53.7529 20.2452 53.5038 20.4336 53.2548C23.2743 56.3406 26.6457 59.3434 30.4243 62.1621C31.0738 66.7181 32.0926 71.0267 33.4516 74.9351C33.1331 74.9675 32.8159 74.9974 32.5011 75.0229ZM64.6922 78.8801C61.2343 85.9497 56.6339 90.0044 52.0705 90.0044C47.507 90.0044 42.9065 85.9497 39.4486 78.8801C39.3141 78.6052 39.1825 78.326 39.0525 78.0445C43.2521 77.2219 47.6423 75.9158 52.0705 74.1787C56.4987 75.9158 60.8889 77.2218 65.0885 78.0444C64.9583 78.326 64.8267 78.6052 64.6922 78.8801ZM87.9702 70.0749C85.6883 73.875 79.736 75.6791 71.64 75.0229C71.3252 74.9974 71.008 74.9675 70.6894 74.9351C72.0484 71.0267 73.0672 66.718 73.7167 62.162C77.4954 59.3433 80.8666 56.3405 83.7073 53.2548C83.8958 53.5038 84.0814 53.753 84.2618 54.0025C88.9003 60.4166 90.2519 66.2747 87.9702 70.0749Z" fill="#0CA6F2"/>
</svg>
