<svg width="40" height="40" viewBox="0 0 40 40" fill="none" xmlns="http://www.w3.org/2000/svg">
<g clip-path="url(#clip0_79_2809)">
<path d="M15.5667 4.42334C15.6604 4.78711 15.606 5.17321 15.4154 5.49692C15.2248 5.82063 14.9136 6.0555 14.55 6.15C11.9484 6.82068 9.56504 8.15402 7.63217 10.02C5.69931 11.8861 4.28295 14.2211 3.52117 16.7975C2.7594 19.3738 2.67821 22.1036 3.28552 24.7207C3.89282 27.3378 5.1679 29.7529 6.98645 31.7305C8.80499 33.7081 11.1049 35.1808 13.6621 36.0049C16.2192 36.829 18.9462 36.9764 21.5773 36.4328C24.2083 35.8892 26.6537 34.6732 28.6748 32.9032C30.696 31.1332 32.2241 28.8697 33.11 26.3333C33.2483 25.91 33.3767 25.4717 33.49 25.0333C33.6019 24.6907 33.8401 24.4035 34.1561 24.2301C34.4722 24.0568 34.8424 24.0103 35.1915 24.1C35.5406 24.1898 35.8424 24.4091 36.0356 24.7134C36.2288 25.0177 36.2989 25.3842 36.2317 25.7383C35.4306 28.8803 33.8125 31.7544 31.5414 34.0687C29.2704 36.383 26.4274 38.0552 23.3012 38.9154C20.1749 39.7757 16.8767 39.7933 13.7413 38.9666C10.606 38.1399 7.7453 36.4983 5.44962 34.2084C3.15395 31.9186 1.50508 29.062 0.670433 25.9288C-0.164211 22.7956 -0.154904 19.4973 0.697408 16.3689C1.54972 13.2404 3.21468 10.3932 5.52325 8.11633C7.83181 5.83945 10.7018 4.214 13.8417 3.40501C14.2059 3.31193 14.5922 3.36725 14.9156 3.55882C15.2391 3.7504 15.4733 4.06254 15.5667 4.42667V4.42334Z" fill="black"/>
<path d="M19.8517 8.85559e-06C30.78 8.85559e-06 39.64 8.85834 39.64 19.7867C39.6406 19.9726 39.6046 20.1569 39.5338 20.3288C39.463 20.5008 39.359 20.6571 39.2277 20.7887C39.0964 20.9203 38.9403 21.0247 38.7685 21.0959C38.5967 21.167 38.4126 21.2036 38.2266 21.2033H19.8517C19.6656 21.2038 19.4812 21.1674 19.3093 21.0964C19.1373 21.0253 18.981 20.9209 18.8495 20.7893C18.718 20.6576 18.6138 20.5013 18.543 20.3292C18.4721 20.1571 18.436 19.9727 18.4367 19.7867V1.41167C18.4367 1.22587 18.4733 1.04189 18.5446 0.870296C18.6158 0.698698 18.7203 0.542855 18.8519 0.411704C18.9835 0.280553 19.1397 0.176675 19.3116 0.106027C19.4834 0.0353789 19.6675 -0.000649247 19.8533 8.85559e-06H19.8517Z" fill="#0CA6F2"/>
<path d="M21.2633 2.82666V18.3767H36.8133C36.4912 14.36 34.7495 10.5892 31.9001 7.73985C29.0508 4.89051 25.28 3.14877 21.2633 2.82666Z" fill="#0CA6F2"/>
</g>
<defs>
<clipPath id="clip0_79_2809">
<rect width="40" height="40" fill="white"/>
</clipPath>
</defs>
</svg>
