<svg width="604" height="105" fill="none" xmlns="http://www.w3.org/2000/svg"><g clip-path="url(#a)" fill="#000"><path d="M206.145 81.012h-11.922V33.02h-17.578v-9.932h46.4v9.932H206.12l.025 47.992ZM242.138 33.02h-11.126v-9.932h11.126v9.932Zm0 47.987h-11.126v-42.9h11.126v42.9ZM254.059 23.092h22.639c8.9 0 14.381 1.985 18.274 6.673a38.52 38.52 0 0 1 0 44.493c-3.893 4.688-9.454 6.754-18.274 6.754h-22.639v-57.92Zm22.639 47.988c8.978 0 13.422-6.275 13.422-18.987 0-12.794-4.448-19.068-13.422-19.068h-10.699V71.08h10.699ZM337.639 81.012h-26.063v-57.92h25.823c15.252 0 18.91 9.933 18.91 15.253a13.424 13.424 0 0 1-7.947 11.922 16.084 16.084 0 0 1 9.61 14.06c.005 6.911-4.045 16.685-20.333 16.685Zm-14.146-34.877h12.942c5.48 0 8.418-2.306 8.418-6.515 0-4.314-2.938-6.6-8.418-6.6h-12.942v13.115Zm0 24.926h14.223c5.8 0 8.82-2.622 8.82-7.468 0-4.928-3.019-7.55-8.82-7.55h-14.223v15.018ZM413.366 32.31c-9.377 0-15.019 7.627-15.019 20.421 0 12.63 5.4 20.1 14.621 20.1a11.844 11.844 0 0 0 12.789-11.6h11.6c-.718 13.268-10.33 21.608-24.711 21.608-16.13 0-26.22-11.68-26.22-30.27 0-18.753 10.168-30.43 26.536-30.43 13.509 0 23.119 7.55 24.155 20.58h-11.361a11.693 11.693 0 0 0-12.39-10.409ZM456.823 81.012h-11.124v-57.92h11.126l-.002 57.92ZM507.6 60.434c0 13.743-8.183 22.4-21.216 22.4-13.192 0-21.216-8.58-21.216-22.726 0-14.06 8.024-22.722 21.134-22.722 13.425.005 21.298 8.51 21.298 23.048Zm-31.3-.32c0 8.181 4.051 13.742 10.067 13.742 5.958 0 10.067-5.56 10.067-13.585 0-8.422-3.968-13.9-10.067-13.9-6.016 0-10.067 5.56-10.067 13.743ZM543.194 81.012v-5.086a14.097 14.097 0 0 1-12.87 6.913 13.307 13.307 0 0 1-14.381-14.86V38.106h11.126v27.567c0 5.163 2.399 7.708 7.146 7.708a8.2 8.2 0 0 0 8.984-8.422V38.115h11.122v42.9l-11.127-.003ZM562.664 60.194c0-12.942 7.789-22.8 18.037-22.8a12.948 12.948 0 0 1 11.836 6.28V23.092h11.121v57.92h-11.121v-4.37a13.042 13.042 0 0 1-11.836 6.2c-10.808-.003-18.037-10.094-18.037-22.648Zm11.126 0c0 7.866 3.835 13.35 9.376 13.35 5.541 0 9.372-5.4 9.372-13.187 0-8.182-3.735-13.666-9.372-13.666-5.566 0-9.381 5.56-9.381 13.5l.005.003ZM115.253 24.554A48.694 48.694 0 0 0 64.566.842 48.7 48.7 0 0 0 25.04 40.454a32.5 32.5 0 0 0 7.348 64.152c1.1-.001 2.2-.057 3.293-.168h66.563c1.088.086 2.181.168 3.293.168a40.615 40.615 0 0 0 9.716-80.052ZM72.97 40.034v43.758L60.391 76.54V47.3l-12.583 7.268V40.042L72.97 25.513l12.578 7.258-12.578 7.262ZM98.251 69.24l-12.63 7.29V47.376l12.63-7.3V69.24Z"/></g><defs><clipPath id="a"><path fill="#fff" d="M0 0h604v105H0z"/></clipPath></defs></svg>
