<svg width="40" height="40" viewBox="0 0 40 40" fill="none" xmlns="http://www.w3.org/2000/svg">
<path d="M39.9592 21.7285C39.9592 25.6423 36.775 28.8261 32.8608 28.8261H25.6093C25.168 28.8261 24.8099 28.468 24.8099 28.0267C24.8099 27.585 25.168 27.2272 25.6093 27.2272H32.8608C35.8932 27.2272 38.3603 24.7605 38.3603 21.7285C38.3603 18.7042 35.9055 16.2423 32.8836 16.2299C32.8672 16.2311 32.8512 16.2319 32.8348 16.2323C32.603 16.2383 32.3791 16.1423 32.2228 15.9704C32.0665 15.7982 31.993 15.5663 32.0214 15.3357C32.0733 14.9136 32.0973 14.5638 32.0973 14.2344C32.0973 11.8608 31.1731 9.62995 29.4951 7.95188C27.8166 6.27382 25.5853 5.34965 23.2121 5.34965C21.3618 5.34965 19.5894 5.91407 18.0868 6.98174C16.6174 8.02623 15.5106 9.47006 14.8866 11.1569C14.7919 11.4127 14.5736 11.6022 14.3074 11.6606C14.0412 11.7185 13.7634 11.637 13.5707 11.4443C12.8172 10.6888 11.8151 10.2731 10.7486 10.2731C8.54849 10.2731 6.7585 12.0627 6.7585 14.2624C6.7585 14.2748 6.7601 14.3008 6.7621 14.326C6.7645 14.3619 6.7669 14.3975 6.7681 14.4339C6.78129 14.8036 6.53905 15.1342 6.18209 15.2329C4.91815 15.5823 3.77812 16.3482 2.97187 17.3899C2.13963 18.4648 1.69953 19.7535 1.69953 21.117C1.69953 24.4859 4.44127 27.2272 7.81059 27.2272H14.4505C14.8918 27.2272 15.2499 27.585 15.2499 28.0267C15.2499 28.468 14.8918 28.8261 14.4505 28.8261H7.81059C3.55947 28.8261 0.100616 25.3677 0.100616 21.117C0.100616 19.3961 0.65624 17.7688 1.70713 16.4109C2.59812 15.2605 3.8125 14.3763 5.17238 13.8791C5.37024 10.9758 7.7954 8.67419 10.7486 8.67419C11.8574 8.67419 12.9167 8.99518 13.8209 9.59317C14.5888 8.03583 15.7288 6.69594 17.1607 5.67863C18.9354 4.41708 21.028 3.75073 23.2121 3.75073C26.0126 3.75073 28.6453 4.84119 30.6255 6.82105C32.6058 8.80131 33.6962 11.4339 33.6962 14.2344C33.6962 14.3791 33.6922 14.5262 33.6846 14.6785C37.2123 15.0878 39.9592 18.0934 39.9592 21.7285Z" fill="#0CA6F2"/>
<path d="M24.5804 23.012C24.4245 23.1679 24.2199 23.2462 24.0152 23.2462C23.8105 23.2462 23.6059 23.1679 23.45 23.012L20.8294 20.3918V34.4031C20.8294 34.8448 20.4716 35.2025 20.0299 35.2025C19.5882 35.2025 19.2304 34.8448 19.2304 34.4031V20.3918L16.6098 23.012C16.2976 23.3242 15.7916 23.3242 15.4794 23.012C15.1672 22.6998 15.1672 22.1933 15.4794 21.8811L19.4647 17.8963C19.7769 17.5841 20.2829 17.5841 20.5951 17.8963L24.5804 21.8811C24.8926 22.1933 24.8926 22.6998 24.5804 23.012Z" fill="#0CA6F2"/>
</svg>
